<mxfile host="Electron" modified="2023-07-17T11:05:38.979Z" agent="Mozilla/5.0 (Windows NT 6.1; Win64; x64) AppleWebKit/537.36 (KHTML, like Gecko) draw.io/21.1.2 Chrome/106.0.5249.199 Electron/21.4.3 Safari/537.36" etag="4SNcS-rkRk1W7Blu0J5W" version="21.1.2" type="device">
  <diagram name="ページ1" id="DE_Cwm9TTIBniMW3XSRr">
    <mxGraphModel dx="1418" dy="775" grid="1" gridSize="10" guides="1" tooltips="1" connect="1" arrows="1" fold="1" page="1" pageScale="1" pageWidth="1169" pageHeight="827" math="0" shadow="0">
      <root>
        <mxCell id="0" />
        <mxCell id="1" parent="0" />
        <mxCell id="t2GuJ6bKuWdljwa8_jju-1" style="edgeStyle=orthogonalEdgeStyle;rounded=0;orthogonalLoop=1;jettySize=auto;html=1;" parent="1" source="t2GuJ6bKuWdljwa8_jju-2" target="t2GuJ6bKuWdljwa8_jju-19" edge="1">
          <mxGeometry relative="1" as="geometry" />
        </mxCell>
        <mxCell id="t2GuJ6bKuWdljwa8_jju-2" value="MetalKit Viewの設定" style="rounded=1;whiteSpace=wrap;html=1;fontSize=18;" parent="1" vertex="1">
          <mxGeometry x="400" y="200" width="280" height="40" as="geometry" />
        </mxCell>
        <mxCell id="t2GuJ6bKuWdljwa8_jju-3" style="edgeStyle=orthogonalEdgeStyle;rounded=0;orthogonalLoop=1;jettySize=auto;html=1;entryX=0.5;entryY=0;entryDx=0;entryDy=0;" parent="1" source="t2GuJ6bKuWdljwa8_jju-4" target="t2GuJ6bKuWdljwa8_jju-7" edge="1">
          <mxGeometry relative="1" as="geometry">
            <mxPoint x="540" y="440" as="targetPoint" />
          </mxGeometry>
        </mxCell>
        <mxCell id="t2GuJ6bKuWdljwa8_jju-4" value="コマンド・キューの作成" style="rounded=1;whiteSpace=wrap;html=1;fontSize=18;" parent="1" vertex="1">
          <mxGeometry x="400" y="360" width="280" height="40" as="geometry" />
        </mxCell>
        <mxCell id="t2GuJ6bKuWdljwa8_jju-5" style="edgeStyle=orthogonalEdgeStyle;rounded=0;orthogonalLoop=1;jettySize=auto;html=1;entryX=0.5;entryY=0;entryDx=0;entryDy=0;" parent="1" source="t2GuJ6bKuWdljwa8_jju-6" target="t2GuJ6bKuWdljwa8_jju-9" edge="1">
          <mxGeometry relative="1" as="geometry" />
        </mxCell>
        <mxCell id="t2GuJ6bKuWdljwa8_jju-6" value="start" style="ellipse;whiteSpace=wrap;html=1;fontSize=18;" parent="1" vertex="1">
          <mxGeometry x="480" y="40" width="120" height="40" as="geometry" />
        </mxCell>
        <mxCell id="t2GuJ6bKuWdljwa8_jju-7" value="return" style="ellipse;whiteSpace=wrap;html=1;fontSize=18;" parent="1" vertex="1">
          <mxGeometry x="480" y="440" width="120" height="40" as="geometry" />
        </mxCell>
        <mxCell id="t2GuJ6bKuWdljwa8_jju-8" style="edgeStyle=orthogonalEdgeStyle;rounded=0;orthogonalLoop=1;jettySize=auto;html=1;entryX=0.5;entryY=0;entryDx=0;entryDy=0;" parent="1" source="t2GuJ6bKuWdljwa8_jju-9" target="t2GuJ6bKuWdljwa8_jju-2" edge="1">
          <mxGeometry relative="1" as="geometry" />
        </mxCell>
        <mxCell id="t2GuJ6bKuWdljwa8_jju-9" value="GPUの取得" style="rounded=1;whiteSpace=wrap;html=1;fontSize=18;" parent="1" vertex="1">
          <mxGeometry x="400" y="120" width="280" height="40" as="geometry" />
        </mxCell>
        <mxCell id="t2GuJ6bKuWdljwa8_jju-10" style="edgeStyle=orthogonalEdgeStyle;rounded=0;orthogonalLoop=1;jettySize=auto;html=1;" parent="1" source="t2GuJ6bKuWdljwa8_jju-11" edge="1">
          <mxGeometry relative="1" as="geometry">
            <mxPoint x="920" y="280" as="targetPoint" />
          </mxGeometry>
        </mxCell>
        <mxCell id="t2GuJ6bKuWdljwa8_jju-11" value="コマンド・バッファの作成" style="rounded=1;whiteSpace=wrap;html=1;fontSize=18;" parent="1" vertex="1">
          <mxGeometry x="760" y="200" width="240" height="40" as="geometry" />
        </mxCell>
        <mxCell id="t2GuJ6bKuWdljwa8_jju-12" style="edgeStyle=orthogonalEdgeStyle;rounded=0;orthogonalLoop=1;jettySize=auto;html=1;entryX=0.5;entryY=0;entryDx=0;entryDy=0;exitX=0.5;exitY=1;exitDx=0;exitDy=0;" parent="1" source="t2GuJ6bKuWdljwa8_jju-28" target="t2GuJ6bKuWdljwa8_jju-21" edge="1">
          <mxGeometry relative="1" as="geometry">
            <mxPoint x="920" y="480" as="sourcePoint" />
          </mxGeometry>
        </mxCell>
        <mxCell id="t2GuJ6bKuWdljwa8_jju-13" style="edgeStyle=orthogonalEdgeStyle;rounded=0;orthogonalLoop=1;jettySize=auto;html=1;entryX=0.5;entryY=0;entryDx=0;entryDy=0;" parent="1" source="t2GuJ6bKuWdljwa8_jju-14" target="t2GuJ6bKuWdljwa8_jju-17" edge="1">
          <mxGeometry relative="1" as="geometry" />
        </mxCell>
        <mxCell id="t2GuJ6bKuWdljwa8_jju-14" value="draw()" style="ellipse;whiteSpace=wrap;html=1;fontSize=18;" parent="1" vertex="1">
          <mxGeometry x="820" y="40" width="120" height="40" as="geometry" />
        </mxCell>
        <mxCell id="t2GuJ6bKuWdljwa8_jju-15" value="return" style="ellipse;whiteSpace=wrap;html=1;fontSize=18;" parent="1" vertex="1">
          <mxGeometry x="820" y="640" width="120" height="40" as="geometry" />
        </mxCell>
        <mxCell id="t2GuJ6bKuWdljwa8_jju-16" style="edgeStyle=orthogonalEdgeStyle;rounded=0;orthogonalLoop=1;jettySize=auto;html=1;entryX=0.5;entryY=0;entryDx=0;entryDy=0;" parent="1" source="t2GuJ6bKuWdljwa8_jju-17" target="t2GuJ6bKuWdljwa8_jju-11" edge="1">
          <mxGeometry relative="1" as="geometry" />
        </mxCell>
        <mxCell id="t2GuJ6bKuWdljwa8_jju-17" value="ドローアブルの取得" style="rounded=1;whiteSpace=wrap;html=1;fontSize=18;" parent="1" vertex="1">
          <mxGeometry x="760" y="120" width="240" height="40" as="geometry" />
        </mxCell>
        <mxCell id="t2GuJ6bKuWdljwa8_jju-18" style="edgeStyle=orthogonalEdgeStyle;rounded=0;orthogonalLoop=1;jettySize=auto;html=1;entryX=0.5;entryY=0;entryDx=0;entryDy=0;" parent="1" source="t2GuJ6bKuWdljwa8_jju-19" target="t2GuJ6bKuWdljwa8_jju-4" edge="1">
          <mxGeometry relative="1" as="geometry" />
        </mxCell>
        <mxCell id="t2GuJ6bKuWdljwa8_jju-19" value="画像（テクスチャ）のロード" style="rounded=1;whiteSpace=wrap;html=1;fontSize=18;" parent="1" vertex="1">
          <mxGeometry x="400" y="280" width="280" height="40" as="geometry" />
        </mxCell>
        <mxCell id="t2GuJ6bKuWdljwa8_jju-20" style="edgeStyle=orthogonalEdgeStyle;rounded=0;orthogonalLoop=1;jettySize=auto;html=1;entryX=0.5;entryY=0;entryDx=0;entryDy=0;" parent="1" source="t2GuJ6bKuWdljwa8_jju-21" target="t2GuJ6bKuWdljwa8_jju-23" edge="1">
          <mxGeometry relative="1" as="geometry" />
        </mxCell>
        <mxCell id="t2GuJ6bKuWdljwa8_jju-21" value="ドローアブルを&lt;br&gt;コマンド・バッファに渡す" style="rounded=1;whiteSpace=wrap;html=1;fontSize=18;" parent="1" vertex="1">
          <mxGeometry x="800" y="400" width="240" height="80" as="geometry" />
        </mxCell>
        <mxCell id="t2GuJ6bKuWdljwa8_jju-22" style="edgeStyle=orthogonalEdgeStyle;rounded=0;orthogonalLoop=1;jettySize=auto;html=1;" parent="1" source="t2GuJ6bKuWdljwa8_jju-23" target="t2GuJ6bKuWdljwa8_jju-15" edge="1">
          <mxGeometry relative="1" as="geometry" />
        </mxCell>
        <mxCell id="t2GuJ6bKuWdljwa8_jju-23" value="コマンド・バッファを&lt;br&gt;キューに登録" style="rounded=1;whiteSpace=wrap;html=1;fontSize=18;" parent="1" vertex="1">
          <mxGeometry x="760" y="520" width="240" height="80" as="geometry" />
        </mxCell>
        <mxCell id="t2GuJ6bKuWdljwa8_jju-24" value="" style="rounded=0;whiteSpace=wrap;html=1;strokeColor=none;fillColor=none;" parent="1" vertex="1">
          <mxGeometry width="40" height="40" as="geometry" />
        </mxCell>
        <mxCell id="t2GuJ6bKuWdljwa8_jju-25" value="" style="rounded=0;whiteSpace=wrap;html=1;strokeColor=none;fillColor=none;" parent="1" vertex="1">
          <mxGeometry x="1600" width="40" height="40" as="geometry" />
        </mxCell>
        <mxCell id="t2GuJ6bKuWdljwa8_jju-26" style="rounded=0;orthogonalLoop=1;jettySize=auto;html=1;dashed=1;endArrow=none;endFill=0;" parent="1" source="t2GuJ6bKuWdljwa8_jju-27" target="t2GuJ6bKuWdljwa8_jju-14" edge="1">
          <mxGeometry relative="1" as="geometry" />
        </mxCell>
        <mxCell id="t2GuJ6bKuWdljwa8_jju-27" value="MetalKit View&lt;br style=&quot;font-size: 18px;&quot;&gt;デリゲート・メソッド" style="text;html=1;align=center;verticalAlign=middle;resizable=0;points=[];autosize=1;strokeColor=none;fillColor=none;fontSize=18;" parent="1" vertex="1">
          <mxGeometry x="990" y="10" width="200" height="60" as="geometry" />
        </mxCell>
        <mxCell id="t2GuJ6bKuWdljwa8_jju-28" value="ガウシアンぼかし(MPS)を&lt;br&gt;コマンド・バッファに登録" style="rounded=1;whiteSpace=wrap;html=1;fontSize=18;fillColor=#d5e8d4;strokeColor=#82b366;shadow=0;glass=0;" parent="1" vertex="1">
          <mxGeometry x="800" y="280" width="240" height="80" as="geometry" />
        </mxCell>
      </root>
    </mxGraphModel>
  </diagram>
</mxfile>
